<svg width="17" height="17" viewBox="0 0 17 17" fill="none" xmlns="http://www.w3.org/2000/svg">
<path d="M16.3687 12.095L15.6187 15.2512C15.5249 15.72 15.1499 16.0325 14.6812 16.0325C6.80615 16.0012 0.399902 9.595 0.399902 1.72C0.399902 1.25125 0.681152 0.876248 1.1499 0.782498L4.30615 0.0324976C4.74365 -0.0612524 5.2124 0.188748 5.3999 0.594998L6.86865 4.00125C7.0249 4.4075 6.93115 4.87625 6.5874 5.12625L4.8999 6.50125C5.9624 8.6575 7.7124 10.4075 9.8999 11.47L11.2749 9.7825C11.5249 9.47 11.9937 9.345 12.3999 9.50125L15.8062 10.97C16.2124 11.1887 16.4624 11.6575 16.3687 12.095Z" fill="#192040"/>
</svg>
