<svg width="24" height="24" viewBox="0 0 24 24" fill="none" xmlns="http://www.w3.org/2000/svg">
<path fill-rule="evenodd" clip-rule="evenodd" d="M16.788 19.834C17.0295 20.005 17.3407 20.0478 17.6182 19.9428C17.8957 19.837 18.0997 19.6 18.1612 19.3128C18.8129 16.2499 20.3939 8.49728 20.9871 5.71109C21.0321 5.5011 20.9571 5.28285 20.7921 5.14261C20.6271 5.00236 20.3984 4.96186 20.1944 5.03761C17.0497 6.20158 7.3652 9.83525 3.40679 11.3C3.15554 11.393 2.99205 11.6345 3.0003 11.8992C3.0093 12.1647 3.18779 12.3949 3.44504 12.4722C5.22025 13.0032 7.55044 13.7419 7.55044 13.7419C7.55044 13.7419 8.63942 17.0306 9.20716 18.703C9.27841 18.913 9.44265 19.078 9.6594 19.135C9.87539 19.1913 10.1064 19.132 10.2676 18.9798C11.1796 18.1188 12.5896 16.7876 12.5896 16.7876C12.5896 16.7876 15.2685 18.7518 16.788 19.834ZM8.53067 13.3264L9.78989 17.4798L10.0696 14.8496C10.0696 14.8496 14.9348 10.4615 17.7082 7.96029C17.7892 7.8868 17.8005 7.7638 17.733 7.67755C17.6662 7.5913 17.5432 7.57105 17.451 7.62955C14.2365 9.68225 8.53067 13.3264 8.53067 13.3264Z" fill="#192040"/>
</svg>
