<svg width="24" height="24" viewBox="0 0 24 24" fill="none" xmlns="http://www.w3.org/2000/svg">
<path d="M3 21L4.26525 16.3778C3.4845 15.0247 3.07425 13.491 3.075 11.9183C3.07725 7.00125 7.0785 3 11.9948 3C14.3805 3.00075 16.62 3.93 18.3045 5.616C19.9883 7.302 20.9153 9.543 20.9145 11.9265C20.9123 16.8443 16.911 20.8455 11.9948 20.8455C10.5023 20.8448 9.0315 20.4705 7.72875 19.7595L3 21ZM7.94775 18.1448C9.20475 18.891 10.4047 19.338 11.9917 19.3387C16.0777 19.3387 19.4062 16.0133 19.4085 11.925C19.41 7.8285 16.0972 4.5075 11.9977 4.506C7.90875 4.506 4.5825 7.8315 4.581 11.919C4.58025 13.5878 5.06925 14.8372 5.8905 16.1445L5.14125 18.8805L7.94775 18.1448ZM16.488 14.0468C16.4325 13.9537 16.284 13.8982 16.0605 13.7865C15.8378 13.6748 14.742 13.1355 14.5372 13.0612C14.3332 12.987 14.1847 12.9495 14.0355 13.173C13.887 13.3958 13.4595 13.8982 13.3298 14.0468C13.2 14.1953 13.0695 14.214 12.8468 14.1023C12.624 13.9905 11.9055 13.7557 11.0542 12.996C10.392 12.405 9.94425 11.6753 9.8145 11.4517C9.68475 11.229 9.801 11.1082 9.912 10.9973C10.0125 10.8975 10.1347 10.737 10.2465 10.6065C10.3597 10.4775 10.3965 10.3845 10.4715 10.2353C10.5458 10.0868 10.509 9.95625 10.4528 9.8445C10.3965 9.7335 9.951 8.63625 9.76575 8.19C9.58425 7.75575 9.4005 7.81425 9.264 7.8075L8.8365 7.8C8.688 7.8 8.4465 7.8555 8.2425 8.079C8.0385 8.3025 7.4625 8.841 7.4625 9.93825C7.4625 11.0355 8.26125 12.0953 8.37225 12.2437C8.484 12.3923 9.9435 14.6438 12.1792 15.609C12.711 15.8385 13.1265 15.9757 13.4497 16.0785C13.9837 16.248 14.4698 16.224 14.8538 16.167C15.282 16.1032 16.1723 15.6277 16.3583 15.1073C16.5443 14.586 16.5443 14.1398 16.488 14.0468Z" fill="#192040"/>
</svg>
